<?xml version="1.0" encoding="utf-8"?>
<svg version="1.1" id="cards" xmlns="http://www.w3.org/2000/svg" xmlns:xlink="http://www.w3.org/1999/xlink" x="0px" y="0px" viewBox="0 0 90 78.5" style="enable-background:new 0 0 90 78.5;" xml:space="preserve">
	<style type="text/css">
		.logo-card {
			fill: #FFFFFF;
			stroke: #000000;
			stroke-width: 2;
			stroke-miterlimit: 10;
		}
	</style>
	<path class="logo-card" d="M52.6,67.8l-31.9,6.3c-4.3,0.9-8.5-2-9.4-6.3L1.2,16.9c-0.9-4.3,2-8.5,6.3-9.4l31.9-6.3c4.3-0.9,8.5,2,9.4,6.3l10.1,50.9C59.7,62.7,56.9,66.9,52.6,67.8z"/>
	<path class="logo-card" d="M59.4,71.6l-32.5-0.9c-4.4-0.1-7.9-3.8-7.8-8.2l1.4-51.9c0.1-4.4,3.8-7.9,8.2-7.8l32.5,0.9c4.4,0.1,7.9,3.8,7.8,8.2l-1.4,51.9C67.5,68.2,63.8,71.7,59.4,71.6z"/>
	<path class="logo-card" d="M68.2,77.3l-31.8-6.9c-4.3-0.9-7-5.2-6.1-9.5l11.1-50.7c0.9-4.3,5.2-7,9.5-6.1l31.8,6.9c4.3,0.9,7,5.2,6.1,9.5L77.7,71.2C76.8,75.5,72.5,78.2,68.2,77.3z"/>
</svg>
