<svg xmlns="http://www.w3.org/2000/svg" version="1.1" viewBox="0 0 89.94 78.44">
  <path d="M52.6,67.8,20.7,74.1a8,8,0,0,1-9.4-6.3L1.2,16.9A8,8,0,0,1,7.5,7.5L39.4,1.2a8,8,0,0,1,9.4,6.3L58.9,58.4A8.11,8.11,0,0,1,52.6,67.8Z" transform="translate(-0.04 -0.04)" style="stroke:#fff;stroke-miterlimit:10;stroke-width:3px"/>
  <path d="M59.4,71.6l-32.5-.9a8,8,0,0,1-7.8-8.2l1.4-51.9a8,8,0,0,1,8.2-7.8l32.5.9A8,8,0,0,1,69,11.9L67.6,63.8A8,8,0,0,1,59.4,71.6Z" transform="translate(-0.04 -0.04)" style="stroke:#fff;stroke-miterlimit:10;stroke-width:3px"/>
  <path d="M68.2,77.3,36.4,70.4a8,8,0,0,1-6.1-9.5L41.4,10.2a8,8,0,0,1,9.5-6.1L82.7,11a8,8,0,0,1,6.1,9.5L77.7,71.2A8,8,0,0,1,68.2,77.3Z" transform="translate(-0.04 -0.04)" style="stroke:#fff;stroke-miterlimit:10;stroke-width:3px"/>
</svg>
